<?xml version="1.0" standalone="no"?>
<svg xmlns="http://www.w3.org/2000/svg" viewBox="0 0 65 65" fill="#ff5a5a">
  <path data-name="star-10" d="M32.32 35.25c-.34 0-.21-1.14-1-2s-1.95-.8-1.94-1.13 1.14-.21 2-1 .8-2 1.13-1.94.21 1.14 1 2 2 .8 1.94 1.13-1.14.21-2 1-.8 1.95-1.13 1.94z" />
  <path data-name="star-9" d="M32.34 34.24c-.22 0-.14-.76-.68-1.34s-1.31-.53-1.3-.76.76-.14 1.34-.68.53-1.31.76-1.3.14.76.68 1.34 1.31.53 1.3.76-.76.14-1.34.68-.53 1.31-.76 1.3z" />
  <path data-name="star-8" d="M32.32 35.25c-.34 0-.21-1.14-1-2s-1.95-.8-1.94-1.13 1.14-.21 2-1 .8-2 1.13-1.94.21 1.14 1 2 2 .8 1.94 1.13-1.14.21-2 1-.8 1.95-1.13 1.94z" />
  <path data-name="star-7" d="M32.34 34.24c-.22 0-.14-.76-.68-1.34s-1.31-.53-1.3-.76.76-.14 1.34-.68.53-1.31.76-1.3.14.76.68 1.34 1.31.53 1.3.76-.76.14-1.34.68-.53 1.31-.76 1.3z" />
  <path data-name="star-6" d="M32.32 35.25c-.34 0-.21-1.14-1-2s-1.95-.8-1.94-1.13 1.14-.21 2-1 .8-2 1.13-1.94.21 1.14 1 2 2 .8 1.94 1.13-1.14.21-2 1-.8 1.95-1.13 1.94z" />
  <path data-name="star-5" d="M32.34 34.24c-.22 0-.14-.76-.68-1.34s-1.31-.53-1.3-.76.76-.14 1.34-.68.53-1.31.76-1.3.14.76.68 1.34 1.31.53 1.3.76-.76.14-1.34.68-.53 1.31-.76 1.3z" />
  <path data-name="star-4" d="M32.32 35.25c-.34 0-.21-1.14-1-2s-1.95-.8-1.94-1.13 1.14-.21 2-1 .8-2 1.13-1.94.21 1.14 1 2 2 .8 1.94 1.13-1.14.21-2 1-.8 1.95-1.13 1.94z" />
  <path data-name="star-3" d="M32.34 34.24c-.22 0-.14-.76-.68-1.34s-1.31-.53-1.3-.76.76-.14 1.34-.68.53-1.31.76-1.3.14.76.68 1.34 1.31.53 1.3.76-.76.14-1.34.68-.53 1.31-.76 1.3z" />
  <path data-name="star-2" d="M32.32 35.25c-.34 0-.21-1.14-1-2s-1.95-.8-1.94-1.13 1.14-.21 2-1 .8-2 1.13-1.94.21 1.14 1 2 2 .8 1.94 1.13-1.14.21-2 1-.8 1.95-1.13 1.94z" />
  <path data-name="star-1" d="M32.34 34.24c-.22 0-.14-.76-.68-1.34s-1.31-.53-1.3-.76.76-.14 1.34-.68.53-1.31.76-1.3.14.76.68 1.34 1.31.53 1.3.76-.76.14-1.34.68-.53 1.31-.76 1.3z" />
	<path data-name="center-star-fill" d="M22.1 46.88a.37.37 0 0 1-.37-.43l2-11.39L15.4 27a.38.38 0 0 1 .21-.64l11.44-1.67 5.11-10.37a.4.4 0 0 1 .68 0L38 24.69l11.44 1.67a.38.38 0 0 1 .21.64l-8.28 8.06 2 11.39a.34.34 0 0 1-.15.36.35.35 0 0 1-.39 0L32.5 41.46l-10.23 5.38a.33.33 0 0 1-.17.04z" />
</svg>