<?xml version="1.0" standalone="no"?>
<!DOCTYPE svg PUBLIC "-//W3C//DTD SVG 20010904//EN"
 "http://www.w3.org/TR/2001/REC-SVG-20010904/DTD/svg10.dtd">
<svg version="1.0" xmlns="http://www.w3.org/2000/svg"
 width="310.000000pt" height="310.000000pt" viewBox="0 0 310.000000 310.000000"
 preserveAspectRatio="xMidYMid meet">
<metadata>
Created by potrace 1.11, written by Peter Selinger 2001-2013
</metadata>
<g transform="translate(0.000000,310.000000) scale(0.100000,-0.100000)"
fill="#000000" stroke="none">
<path d="M0 2307 c0 -780 0 -793 20 -810 25 -21 25 -47 0 -80 -18 -23 -20 -40
-20 -191 0 -137 3 -171 16 -191 9 -14 20 -25 25 -25 12 0 43 -31 64 -64 10
-14 23 -26 29 -26 16 0 56 -42 56 -58 0 -7 32 -44 70 -83 39 -40 70 -79 70
-89 0 -16 34 -54 56 -61 6 -2 30 -26 53 -53 38 -44 41 -50 28 -70 -58 -92 -58
-91 -43 -128 15 -34 14 -35 -7 -31 -15 3 -33 -7 -57 -31 -19 -19 -41 -36 -49
-36 -14 0 -121 83 -208 162 -42 37 -77 51 -67 25 2 -7 -4 -22 -16 -32 -24 -22
-29 -75 -5 -55 8 7 15 18 15 25 0 22 39 24 63 4 19 -17 20 -21 7 -31 -8 -7
-34 -35 -58 -62 -36 -42 -42 -55 -42 -95 0 -26 6 -53 12 -59 10 -10 10 -15 1
-20 -6 -4 -11 -35 -12 -75 l0 -67 76 0 c57 0 79 4 87 16 12 15 46 10 46 -7 0
-5 296 -9 700 -9 553 0 700 3 700 13 0 6 12 20 25 30 24 17 25 17 37 -3 7 -11
20 -20 30 -20 9 0 20 -5 23 -10 3 -6 44 -10 91 -10 70 0 84 3 84 16 0 9 -9 18
-19 21 -25 6 -34 28 -17 42 9 8 24 -1 56 -34 l44 -45 141 0 141 0 27 31 c15
17 27 35 27 39 0 23 109 18 123 -6 4 -8 13 -14 20 -14 7 0 23 -12 36 -25 23
-24 26 -25 172 -25 l150 0 -17 31 -16 32 31 -22 c17 -12 33 -26 36 -31 4 -6
24 -10 46 -10 32 0 41 4 51 25 6 14 17 25 24 25 7 0 19 10 25 22 11 21 12 21
25 3 12 -16 11 -22 -7 -41 -12 -13 -31 -25 -43 -27 -11 -2 2 -5 30 -6 45 -1
52 2 62 23 6 13 20 27 32 31 19 6 20 13 19 98 -1 51 -6 98 -12 105 -7 9 -7 16
1 24 7 7 12 34 12 61 0 39 -3 48 -14 44 -9 -4 -13 -1 -10 6 5 14 -101 112
-150 139 -17 9 -39 17 -48 18 -10 0 -18 7 -18 15 0 8 -11 22 -25 31 -23 15
-26 15 -41 0 -9 -10 -19 -14 -22 -11 -3 3 0 11 6 17 16 16 15 50 0 71 -10 13
-22 15 -49 11 -29 -5 -42 -15 -64 -50 -15 -24 -32 -44 -36 -44 -14 0 -10 16 6
30 8 7 15 18 15 24 0 6 14 31 30 56 16 25 30 53 30 63 0 23 -29 22 -38 -2 -8
-22 -100 -106 -108 -99 -5 5 36 57 90 113 16 17 35 40 43 53 12 17 19 20 29
12 9 -9 15 -6 24 9 8 15 8 21 0 21 -6 0 -8 5 -5 11 5 7 13 4 26 -7 15 -14 21
-15 34 -4 27 22 25 7 -5 -37 -42 -62 -35 -97 32 -161 30 -29 72 -65 94 -80 22
-16 67 -54 101 -85 33 -32 63 -57 67 -57 11 0 6 46 -6 59 -10 11 -10 14 0 18
9 3 12 40 12 134 0 117 -7 149 -25 120 -6 -10 -70 23 -82 42 -8 13 25 37 42
31 8 -4 18 8 26 30 7 20 19 36 26 36 10 0 13 44 13 210 0 117 -4 210 -9 210
-19 0 -22 35 -4 48 13 9 15 16 7 29 -17 27 -32 26 -59 -3 -31 -34 -32 -68 -3
-81 l23 -10 -21 -11 c-16 -9 -26 -8 -43 5 -19 12 -22 21 -17 48 6 29 4 33 -19
39 -37 9 -65 -9 -65 -44 0 -37 -26 -65 -46 -49 -20 17 -17 40 6 46 35 9 24 25
-55 87 -24 19 -27 26 -17 38 10 13 19 13 64 2 55 -15 126 -18 152 -8 26 10 20
44 -8 44 -16 0 -32 11 -46 30 l-22 30 54 63 c30 34 64 76 77 94 13 20 27 30
36 26 9 -3 15 1 15 10 0 8 -6 17 -12 20 -10 4 -10 7 0 18 9 10 12 81 12 284
l0 272 -22 11 c-13 6 -68 51 -123 101 -55 50 -105 91 -111 91 -13 0 -81 70
-68 70 6 0 19 -7 30 -15 28 -21 49 -18 62 10 10 21 9 27 -8 37 -39 25 -10 104
41 115 29 6 55 35 45 52 -3 5 -16 6 -28 4 -17 -3 -26 3 -36 23 -18 41 -1 51
47 30 41 -19 61 -15 61 10 0 18 25 18 44 -1 8 -8 21 -15 28 -15 30 0 38 24 38
117 l0 93 -630 0 c-566 0 -681 -4 -610 -23 11 -3 20 -10 20 -16 0 -19 -24 -12
-52 14 -27 25 -29 25 -214 25 -162 0 -190 -2 -206 -17 -18 -16 -18 -16 -12 0
4 11 1 17 -8 17 -17 0 -42 -26 -51 -53 -6 -15 -4 -16 13 -7 16 8 20 8 20 -3 0
-8 -7 -20 -15 -27 -23 -19 -65 5 -65 37 0 14 -6 23 -15 23 -9 0 -18 7 -21 15
-5 11 -23 15 -75 15 -38 0 -69 -3 -69 -6 0 -3 9 -19 21 -35 14 -21 19 -41 17
-71 -3 -45 -4 -46 -61 -32 -22 5 -27 3 -27 -12 0 -11 9 -32 19 -48 11 -17 18
-33 15 -38 -3 -4 -1 -8 4 -8 5 0 15 -13 22 -30 7 -16 23 -36 36 -45 34 -22 30
-49 -10 -73 -19 -12 -44 -39 -56 -61 -26 -53 -48 -53 -97 0 -21 22 -57 59 -80
81 -24 23 -43 47 -43 55 0 7 17 21 37 30 21 11 46 34 60 58 36 61 37 67 20 77
-21 11 -22 51 -3 71 8 7 14 30 13 50 l-1 37 -127 0 -126 0 5 -26 c4 -20 1 -25
-9 -22 -8 3 -15 14 -17 26 l-3 22 -360 0 -359 0 0 -793z m2940 683 c0 -11 -7
-20 -15 -20 -17 0 -18 2 -9 24 9 23 24 20 24 -4z m-1572 -141 c4 -23 -42 -73
-61 -66 -25 10 -20 43 10 67 28 22 46 22 51 -1z m373 -120 l21 -21 -33 -24
c-18 -13 -38 -24 -45 -24 -6 0 -17 -7 -24 -15 -10 -13 -10 -19 5 -35 10 -11
28 -20 41 -20 13 0 25 -4 29 -10 8 -13 -31 -50 -55 -50 -11 0 -20 -2 -20 -4 0
-2 -3 -11 -6 -20 -4 -11 0 -16 14 -16 13 0 22 -9 26 -25 8 -30 -8 -65 -29 -65
-10 0 -15 -11 -15 -34 0 -19 -7 -41 -15 -49 -9 -10 -11 -17 -4 -19 12 -4 6
-12 -122 -148 -51 -55 -99 -100 -107 -100 -8 0 -23 -11 -34 -25 -11 -14 -26
-25 -34 -25 -9 0 -14 -8 -13 -17 6 -37 -11 -63 -41 -63 -15 0 -30 6 -33 13 -2
7 -22 21 -43 32 -22 11 -43 25 -47 30 -5 6 -6 1 -3 -10 7 -29 -66 -79 -102
-70 -26 6 -26 6 -7 -15 10 -11 56 -39 101 -62 66 -32 85 -38 101 -29 30 15
333 336 333 352 1 21 25 49 43 49 8 0 71 60 139 133 68 72 158 167 200 210 75
76 77 77 127 77 61 0 110 -22 165 -75 229 -220 399 -375 546 -494 56 -47 111
-98 121 -115 16 -27 17 -32 2 -60 -9 -17 -51 -70 -94 -119 -48 -53 -79 -96
-79 -110 0 -12 -7 -30 -15 -41 -10 -13 -11 -25 -4 -43 10 -28 4 -40 -44 -85
-16 -16 -38 -28 -48 -28 -11 0 -19 -6 -19 -13 0 -8 -9 -22 -21 -33 -12 -10
-30 -36 -40 -56 -11 -21 -22 -38 -25 -38 -3 0 -19 13 -35 29 -16 16 -42 36
-58 44 -27 14 -31 13 -47 -4 -20 -22 -37 -24 -52 -6 -18 22 13 57 50 57 47 0
89 27 141 91 29 36 63 66 90 78 38 17 87 67 87 88 0 5 12 22 28 38 66 71 142
171 142 187 0 10 -35 46 -77 80 -42 35 -86 73 -97 86 -11 13 -51 51 -89 84
-67 60 -68 60 -83 39 -8 -11 -24 -21 -35 -21 -28 0 -61 57 -55 97 5 37 1 41
-124 154 -112 100 -123 106 -157 79 -16 -12 -34 -18 -45 -14 -10 3 -25 0 -33
-6 -8 -7 -22 -10 -30 -6 -28 10 -65 -11 -65 -38 0 -14 5 -28 11 -31 7 -5 5
-13 -6 -25 -18 -20 -7 -34 15 -19 23 14 28 11 23 -15 -3 -14 -15 -34 -28 -46
-22 -21 -24 -21 -50 -4 -21 14 -26 23 -21 45 4 23 1 28 -21 32 -22 4 -40 -9
-118 -87 -133 -132 -223 -233 -245 -275 -10 -20 -61 -80 -114 -134 -53 -54
-96 -101 -96 -105 0 -4 -25 -34 -55 -67 l-55 -59 -22 22 c-12 12 -17 22 -10
22 7 0 12 13 12 30 0 35 -22 40 -52 13 -17 -15 -20 -15 -48 5 -43 32 -62 28
-124 -29 l-56 -51 -42 30 c-72 50 -88 49 -157 -8 -34 -28 -68 -64 -76 -80 -14
-27 -18 -29 -38 -19 -18 9 -20 9 -9 -2 6 -7 12 -26 12 -41 0 -16 7 -31 15 -34
8 -4 15 -14 15 -23 0 -9 18 -35 40 -56 29 -29 39 -45 34 -60 -20 -73 -47 -104
-37 -42 4 28 1 36 -20 50 -14 9 -38 28 -53 42 -26 24 -26 26 -9 39 27 20 10
36 -33 29 -39 -6 -82 -37 -82 -60 0 -8 -25 -40 -55 -72 -30 -32 -55 -65 -55
-75 0 -25 -46 -67 -65 -60 -15 6 -85 -49 -85 -67 0 -9 -13 4 182 -182 152
-144 173 -162 280 -241 l53 -38 -37 36 c-58 56 -52 73 60 160 56 43 65 47 80
34 90 -75 209 -185 216 -200 7 -13 6 -26 -2 -39 -19 -30 -14 -31 18 -7 30 21
30 21 45 2 18 -24 18 -29 0 -44 -8 -7 -15 -19 -15 -27 0 -24 30 -26 54 -4 23
22 46 15 31 -9 -3 -5 2 -10 12 -10 10 0 29 -11 41 -25 19 -19 22 -31 17 -55
-8 -37 -22 -39 -35 -5 -10 27 -40 34 -40 10 0 -8 -5 -15 -11 -15 -7 0 -8 11
-4 29 4 18 2 32 -5 36 -14 8 -72 -20 -108 -53 -16 -14 -38 -22 -61 -22 l-36
-1 125 -120 c69 -67 148 -138 175 -158 28 -21 56 -45 64 -54 12 -15 11 -17 -3
-17 -10 0 -21 -13 -27 -30 -13 -35 -27 -38 -59 -10 -30 26 -32 25 -24 -5 8
-33 -9 -32 -40 2 -17 18 -24 34 -20 48 3 14 -5 33 -23 56 -41 51 -111 119
-123 119 -5 0 -10 5 -10 10 0 6 -27 38 -61 72 -44 44 -68 61 -89 62 -19 1 -47
19 -95 64 -37 34 -76 69 -87 77 -11 7 -26 24 -32 37 -10 18 -19 22 -44 20 -26
-2 -34 2 -42 22 -5 14 -79 94 -164 178 -153 153 -216 233 -216 272 0 44 172
258 202 252 12 -3 18 2 18 14 0 11 9 25 20 33 13 9 19 23 17 43 -2 22 2 28 15
26 16 -3 94 72 247 240 33 36 62 58 79 60 31 4 43 28 14 28 -21 0 -82 45 -82
61 0 16 21 9 41 -13 10 -13 18 -18 19 -12 0 6 -7 17 -15 24 -11 9 -14 22 -9
42 6 28 5 29 -15 18 -34 -18 -42 -2 -18 35 38 60 71 55 69 -10 -1 -36 11 -47
22 -19 8 20 26 9 26 -17 0 -26 15 -24 39 7 14 17 26 24 39 20 14 -5 22 2 35
29 23 48 22 82 -3 95 -14 7 -20 7 -20 0 0 -13 -47 -13 -55 0 -3 5 4 19 15 30
19 19 22 20 37 4 15 -15 18 -15 30 1 7 10 10 22 7 26 -14 24 12 85 56 133 27
28 61 67 77 87 69 86 231 243 275 265 49 25 88 31 88 14 0 -5 7 -10 15 -10 8
0 15 7 15 15 0 29 73 49 83 23 3 -9 12 -6 29 10 14 12 37 22 54 22 17 0 39 7
50 15 25 19 30 19 55 -6z m399 -19 c-24 -15 -36 -11 -14 4 10 8 21 12 24 10 2
-3 -2 -9 -10 -14z m156 -23 c-3 -12 2 -29 11 -39 12 -13 12 -18 3 -18 -7 0
-21 9 -31 21 -14 17 -16 25 -7 45 13 28 32 21 24 -9z m528 -13 c9 -8 16 -20
16 -25 0 -6 -7 -3 -16 5 -8 9 -20 16 -25 16 -5 0 -9 5 -9 10 0 15 16 12 34 -6z
m-574 -59 c-7 -9 -15 -13 -19 -10 -3 3 1 10 9 15 21 14 24 12 10 -5z m145 -37
c11 -9 36 -31 55 -47 19 -17 30 -31 23 -31 -7 0 -27 13 -45 28 -18 16 -48 38
-66 51 -18 12 -30 27 -26 32 6 10 19 3 59 -33z m-1215 -44 c0 -17 -22 -14 -28
4 -2 7 3 12 12 12 9 0 16 -7 16 -16z m910 -104 c0 -5 -4 -10 -10 -10 -5 0 -10
5 -10 10 0 6 5 10 10 10 6 0 10 -4 10 -10z m131 -45 c28 -19 55 -35 60 -35 5
0 9 -9 9 -21 0 -27 37 -79 56 -79 22 0 17 -31 -6 -37 -14 -4 -20 -14 -20 -33
0 -19 -6 -29 -20 -33 -11 -3 -20 -12 -20 -21 0 -9 -5 -16 -11 -16 -7 0 -9 10
-5 25 4 14 2 25 -4 25 -5 0 -10 -3 -10 -7 0 -5 -38 -48 -85 -98 -46 -49 -79
-92 -73 -94 19 -7 67 -66 68 -83 0 -18 -15 -25 -23 -10 -2 4 -2 1 0 -6 2 -8
-11 -32 -28 -53 l-31 -40 -47 38 c-25 20 -75 63 -111 94 -76 66 -113 89 -103
63 3 -10 24 -33 45 -52 21 -19 38 -40 38 -47 0 -7 14 -18 30 -24 37 -12 48
-37 27 -59 -21 -21 -80 -19 -113 3 -21 14 -25 22 -20 46 5 24 2 29 -14 29 -21
0 -27 15 -10 25 6 3 10 13 10 21 0 11 -8 15 -28 13 -15 -2 -33 1 -41 6 -10 5
-16 4 -19 -3 -4 -14 -32 -16 -32 -3 0 6 5 13 10 16 6 3 10 13 10 22 0 13 -3
13 -15 3 -12 -10 -19 -10 -27 -2 -9 9 -9 12 0 12 16 0 15 35 0 60 -11 17 -9
23 12 45 14 13 41 43 60 66 19 22 47 54 62 70 l27 30 30 -22 c29 -21 29 -23
14 -48 -9 -14 -30 -39 -48 -56 -18 -16 -42 -46 -54 -66 l-21 -37 30 -4 c32 -5
57 13 45 32 -8 13 43 80 169 223 115 131 142 157 162 157 8 0 37 -16 65 -35z
m119 -35 c0 -5 -9 -10 -20 -10 -11 0 -20 5 -20 10 0 6 9 10 20 10 11 0 20 -4
20 -10z m385 -44 c17 -14 26 -25 20 -25 -5 0 -28 16 -50 36 -43 39 -19 30 30
-11z m-2097 -126 c5 0 17 -9 27 -20 16 -18 16 -22 3 -42 -19 -29 -188 -198
-198 -198 -8 0 -28 38 -32 60 -3 21 28 76 48 84 10 4 21 1 26 -6 6 -10 8 -8 8
5 0 10 6 20 14 23 11 4 14 21 12 62 -4 81 -1 85 45 57 21 -14 42 -25 47 -25z
m1800 22 c3 -16 10 -22 28 -22 14 0 24 -6 24 -14 0 -20 -28 -46 -48 -46 -23 0
-59 26 -73 51 -8 16 -6 23 13 39 29 25 52 21 56 -8z m-58 -98 c3 -11 14 -19
25 -19 12 0 50 -31 94 -77 70 -74 83 -101 28 -58 -34 27 -95 52 -107 45 -6 -4
-10 -12 -10 -19 0 -13 -63 -16 -76 -3 -9 9 -44 -37 -44 -59 0 -14 3 -15 12 -6
18 18 28 14 28 -11 0 -13 5 -28 12 -35 9 -9 9 -15 0 -24 -7 -7 -12 -24 -12
-39 0 -21 -4 -26 -17 -23 -12 3 -24 -6 -36 -27 l-18 -32 41 -42 c22 -22 40
-45 40 -51 0 -15 -47 -57 -58 -53 -6 2 -42 34 -81 72 -39 37 -71 61 -71 54 0
-14 -36 -57 -48 -57 -5 0 -17 7 -28 15 -18 14 -18 15 14 42 17 16 32 36 32 45
0 8 20 37 46 64 96 103 88 90 70 129 -10 20 -21 33 -26 30 -5 -3 -19 -1 -30 5
-17 9 -19 14 -9 26 6 8 22 14 35 14 21 0 23 2 12 19 -10 17 -8 23 13 40 27 23
35 25 44 11 3 -5 -1 -10 -9 -10 -19 0 -21 -16 -3 -24 10 -5 10 -7 0 -12 -17
-7 -17 -34 0 -34 19 0 114 105 109 120 -3 7 1 11 9 8 7 -2 16 -13 19 -24z
m-1975 6 c3 -5 1 -10 -4 -10 -6 0 -11 5 -11 10 0 6 2 10 4 10 3 0 8 -4 11 -10z
m452 -96 c5 -15 -20 -24 -37 -14 -7 4 -9 13 -5 19 8 14 37 11 42 -5z m-277
-89 c0 -8 -7 -15 -15 -15 -9 0 -12 6 -9 15 4 8 10 15 15 15 5 0 9 -7 9 -15z
m2094 -80 l50 -45 -25 -27 c-41 -47 -70 -73 -80 -73 -5 0 -9 -6 -9 -14 0 -8
-20 -36 -44 -63 l-45 -48 -85 85 c-91 90 -107 115 -52 81 21 -13 47 -20 67
-19 31 3 34 0 34 -24 0 -14 3 -29 7 -33 8 -9 68 44 68 61 0 6 11 15 24 18 13
3 26 14 30 23 3 10 11 26 18 35 10 14 9 20 -5 36 -17 19 -23 52 -9 52 4 -1 29
-21 56 -45z m-214 5 c0 -5 -7 -10 -15 -10 -8 0 -15 5 -15 10 0 6 7 10 15 10 8
0 15 -4 15 -10z m-956 -39 c-1 -16 -5 -34 -8 -39 -5 -9 -76 -22 -76 -15 0 9
35 59 49 71 24 20 37 14 35 -17z m66 -4 c0 -7 9 -18 20 -25 26 -16 25 -30 -2
-59 -44 -47 -88 -15 -50 37 14 19 17 30 10 32 -7 3 -9 12 -5 22 7 18 27 13 27
-7z m988 -5 c2 -7 -3 -12 -12 -12 -9 0 -16 7 -16 16 0 17 22 14 28 -4z m372
-42 c0 -5 -5 -10 -11 -10 -5 0 -7 5 -4 10 3 6 8 10 11 10 2 0 4 -4 4 -10z
m-905 -10 c3 -5 -1 -10 -10 -10 -9 0 -13 5 -10 10 3 6 8 10 10 10 2 0 7 -4 10
-10z m43 -7 c-5 -25 -28 -28 -28 -4 0 12 6 21 16 21 9 0 14 -7 12 -17z m-663
-34 c0 -25 -2 -26 -16 -13 -22 20 -29 18 -74 -26 -39 -39 -55 -48 -55 -32 0 4
20 28 45 55 35 37 51 47 72 45 23 -2 28 -7 28 -29z m772 -99 c11 -21 10 -26
-3 -28 -21 -5 -54 26 -47 44 8 22 36 13 50 -16z m263 -50 c0 -11 4 -20 9 -20
5 0 11 -6 14 -13 4 -10 -2 -13 -19 -9 -29 5 -48 27 -40 47 8 22 36 18 36 -5z
m-1303 -100 c11 0 28 -9 38 -20 10 -11 29 -20 41 -20 15 0 22 -5 18 -13 -4
-12 102 -116 147 -142 9 -5 47 -35 84 -67 84 -71 106 -77 150 -43 19 14 43 25
54 25 16 0 21 6 21 28 0 36 70 108 95 98 11 -4 15 -12 11 -23 -5 -11 2 -25 21
-40 15 -13 62 -55 103 -92 41 -37 93 -84 115 -103 47 -42 46 -47 -40 -148 -63
-74 -67 -100 -18 -112 21 -6 38 -19 48 -38 17 -32 20 -54 6 -46 -5 3 -21 -6
-36 -20 -37 -34 -56 -27 -130 43 -33 31 -88 83 -122 115 -35 33 -63 66 -63 73
0 12 -50 28 -59 19 -2 -2 -6 -20 -8 -41 -5 -45 -18 -62 -35 -45 -9 9 -8 16 5
30 22 25 13 32 -23 19 -16 -6 -32 -8 -35 -5 -11 11 16 50 30 44 8 -3 15 5 18
22 5 22 -1 33 -34 62 -26 23 -39 42 -37 55 2 14 -17 39 -66 83 -71 65 -92 75
-83 42 4 -15 0 -20 -13 -20 -25 0 -33 15 -20 40 15 27 -10 27 -35 0 -10 -11
-24 -20 -30 -20 -7 0 -42 32 -78 72 -71 77 -74 98 -15 98 38 0 35 28 -6 50
-34 18 -76 54 -76 65 0 5 8 1 18 -8 10 -10 28 -17 39 -17z m-581 -37 c-10 -10
-19 5 -10 18 6 11 8 11 12 0 2 -7 1 -15 -2 -18z m54 8 c0 -6 -4 -13 -10 -16
-19 -12 -10 -27 14 -23 29 6 51 -5 42 -21 -8 -12 -54 -15 -80 -5 -15 6 -14 40
1 67 6 10 33 9 33 -2z m1375 -37 c-16 -24 -18 -25 -33 -10 -16 16 -15 18 8 36
33 25 48 9 25 -26z m760 26 c3 -6 -1 -13 -10 -16 -19 -8 -30 0 -20 15 8 14 22
14 30 1z m-2215 -9 c0 -12 -20 -25 -27 -18 -7 7 6 27 18 27 5 0 9 -4 9 -9z
m974 -17 c4 -9 4 -19 1 -22 -9 -9 -56 18 -50 28 10 16 42 12 49 -6z m142 -53
c-23 -44 -77 -41 -60 3 8 21 56 47 67 36 5 -4 1 -22 -7 -39z m-846 -6 c0 -8
-7 -15 -16 -15 -14 0 -14 3 -4 15 7 8 14 15 16 15 2 0 4 -7 4 -15z m760 5 c0
-5 -7 -10 -16 -10 -8 0 -12 5 -9 10 3 6 10 10 16 10 5 0 9 -4 9 -10z m1233
-56 c-8 -20 -33 -17 -33 4 0 10 3 22 7 25 10 11 32 -13 26 -29z m-2023 1 c0
-16 -27 -32 -37 -21 -7 7 16 36 28 36 5 0 9 -7 9 -15z m810 -4 c0 -6 -4 -13
-10 -16 -5 -3 -10 1 -10 9 0 9 5 16 10 16 6 0 10 -4 10 -9z m-1120 -16 c0 -8
-4 -15 -10 -15 -5 0 -10 7 -10 15 0 8 5 15 10 15 6 0 10 -7 10 -15z m550 -15
c-32 -24 -42 -14 -11 11 13 11 27 17 30 14 3 -4 -5 -15 -19 -25z m1605 20 c7
-12 -12 -50 -26 -50 -16 0 -22 29 -9 45 14 17 26 19 35 5z m-1745 -8 c0 -4 -5
-13 -12 -20 -9 -9 -6 -18 12 -37 22 -24 26 -25 37 -9 12 17 43 13 43 -6 0 -21
-73 -90 -95 -90 -13 0 -26 -6 -28 -12 -4 -9 -6 -9 -6 -1 -1 6 10 25 24 41 29
34 31 42 11 42 -19 0 -46 38 -46 63 0 14 5 18 20 14 13 -3 20 0 20 9 0 8 5 14
10 14 6 0 10 -4 10 -8z m-150 -22 c0 -5 -6 -10 -14 -10 -19 0 -28 -14 -20 -34
7 -18 45 -21 61 -5 15 15 48 3 62 -24 10 -18 9 -28 -3 -52 -12 -22 -12 -31 -3
-37 9 -5 9 -10 -1 -20 -11 -11 -15 -10 -23 5 -6 9 -17 17 -26 17 -11 0 -13 4
-6 13 6 6 13 25 17 40 5 22 4 28 -6 24 -7 -2 -12 -11 -12 -20 1 -13 -2 -14
-16 -7 -9 5 -20 6 -24 3 -8 -8 -57 17 -73 37 -9 12 -7 20 10 39 31 32 77 51
77 31z m190 -9 c0 -6 -4 -13 -10 -16 -5 -3 -10 1 -10 9 0 9 5 16 10 16 6 0 10
-4 10 -9z m2010 -10 c0 -11 -29 -35 -35 -29 -10 9 7 38 21 38 8 0 14 -4 14 -9z
m-120 -17 c0 -14 -3 -14 -15 -4 -8 7 -15 14 -15 16 0 2 7 4 15 4 8 0 15 -7 15
-16z m-2218 -11 c22 -20 24 -53 3 -53 -24 0 -58 37 -52 54 8 21 26 20 49 -1z
m798 -33 c0 -5 -7 -10 -16 -10 -8 0 -12 5 -9 10 3 6 10 10 16 10 5 0 9 -4 9
-10z m1438 -52 c21 -21 13 -45 -29 -91 -41 -45 -99 -69 -99 -40 0 7 4 13 9 13
4 0 6 11 4 24 -6 31 15 62 58 86 43 22 43 22 57 8z m-2149 -27 c-15 -5 -22 6
-14 19 6 9 10 9 16 -1 5 -8 4 -15 -2 -18z m294 -2 c-6 -6 -19 -9 -29 -7 -17 3
-17 4 1 21 12 13 21 15 28 8 8 -8 8 -14 0 -22z m-305 -21 c2 -4 12 -8 22 -8 9
0 23 -7 30 -15 10 -12 8 -18 -11 -34 -12 -10 -30 -16 -40 -14 -25 7 -82 69
-75 82 8 12 69 3 74 -11z m442 -18 c0 -5 -4 -10 -10 -10 -5 0 -10 5 -10 10 0
6 5 10 10 10 6 0 10 -4 10 -10z m1816 -31 c4 -8 9 -7 15 2 4 7 11 10 15 6 11
-11 -16 -33 -48 -41 -30 -7 -38 10 -16 32 15 15 25 15 34 1z m-436 -24 c0 -14
-45 -65 -57 -65 -9 0 -4 13 14 35 25 32 43 44 43 30z m-320 -25 c0 -20 -5 -25
-20 -22 -20 5 -23 9 -15 21 8 14 35 14 35 1z m664 -15 c-9 -14 -19 -23 -22
-20 -5 4 26 45 35 45 2 0 -4 -11 -13 -25z m-159 -24 c3 -5 -8 -19 -24 -30
l-30 -21 15 30 c16 31 28 37 39 21z m-1415 -31 c0 -5 -4 -10 -10 -10 -5 0 -10
5 -10 10 0 6 5 10 10 10 6 0 10 -4 10 -10z m820 0 c0 -5 -2 -10 -4 -10 -3 0
-8 5 -11 10 -3 6 -1 10 4 10 6 0 11 -4 11 -10z m480 0 c0 -5 -4 -10 -10 -10
-5 0 -10 5 -10 10 0 6 5 10 10 10 6 0 10 -4 10 -10z m154 1 c4 -5 -6 -23 -20
-40 -43 -51 -62 -35 -23 20 21 30 34 36 43 20z m-350 -68 c31 -26 56 -50 56
-54 0 -4 -12 -10 -26 -13 -24 -6 -25 -10 -20 -41 5 -23 2 -45 -9 -64 -19 -38
-19 -41 4 -41 26 0 38 -20 20 -34 -15 -11 -14 -46 0 -46 4 0 29 22 55 50 26
27 52 50 57 50 12 0 12 -17 0 -22 -4 -1 -12 -14 -16 -28 l-7 -25 21 24 c40 45
22 -3 -20 -54 -65 -79 -64 -79 -89 -65 -19 10 -24 10 -32 -4 -10 -18 -28 -22
-28 -6 0 6 -12 22 -27 35 -21 18 -25 27 -18 38 6 8 18 26 28 40 16 22 16 28 5
46 -10 16 -19 20 -40 16 -14 -4 -29 -1 -33 5 -4 6 -15 8 -26 5 -13 -5 -17 -2
-14 7 3 8 -3 22 -13 31 -15 14 -23 15 -50 5 -33 -13 -43 -28 -18 -28 22 0 30
-19 16 -35 -17 -20 -40 -19 -56 3 -12 16 -15 16 -45 -1 -49 -27 -58 -7 -20 42
18 23 39 41 46 41 8 0 23 14 35 30 21 29 50 41 50 20 0 -5 5 -10 10 -10 6 0
10 6 10 14 0 8 9 18 20 21 11 3 20 15 20 26 0 18 62 67 86 68 7 1 37 -20 68
-46z m544 35 c-6 -18 -28 -21 -28 -4 0 9 7 16 16 16 9 0 14 -5 12 -12z m-1533
-18 c17 -18 17 -21 1 -45 -30 -46 -81 -11 -58 39 14 31 33 33 57 6z m1085 -21
c0 -5 -4 -9 -10 -9 -5 0 -10 7 -10 16 0 8 5 12 10 9 6 -3 10 -10 10 -16z m126
-67 c-17 -16 -18 -16 -5 5 7 12 15 20 18 17 3 -2 -3 -12 -13 -22z m-836 -23
c0 -5 -4 -9 -10 -9 -5 0 -10 7 -10 16 0 8 5 12 10 9 6 -3 10 -10 10 -16z
m-350 -49 c0 -5 -2 -10 -4 -10 -3 0 -8 5 -11 10 -3 6 -1 10 4 10 6 0 11 -4 11
-10z m430 -15 l23 -25 -25 0 c-19 0 -27 6 -30 25 -3 14 -2 25 2 25 3 0 17 -11
30 -25z m711 -58 c-10 -9 -11 -8 -5 6 3 10 9 15 12 12 3 -3 0 -11 -7 -18z
m-719 -24 c21 -19 24 -43 6 -43 -21 1 -48 26 -48 44 0 21 18 21 42 -1z m161
-90 c-55 -64 -78 -75 -88 -44 -8 26 -1 37 54 96 l44 47 20 -21 21 -20 -51 -58z
m-203 14 c-8 -7 -31 -32 -50 -57 -59 -76 -64 -82 -89 -91 -31 -12 -61 12 -53
44 7 30 46 83 100 136 l44 44 32 -32 c27 -28 29 -34 16 -44z m968 34 c3 -16 8
-20 22 -16 10 3 24 0 32 -7 8 -7 22 -18 33 -24 30 -17 32 -38 3 -32 -13 2 -30
-2 -37 -9 -11 -12 -16 -12 -31 2 -10 9 -16 23 -14 30 3 8 -6 15 -26 18 -38 8
-49 33 -24 52 24 18 38 14 42 -14z m-166 -23 c-28 -28 -40 -16 -17 18 12 19
20 23 28 15 8 -8 5 -17 -11 -33z m408 -63 c0 -22 -4 -24 -30 -22 -17 2 -33 7
-36 10 -12 11 18 37 42 37 19 0 24 -5 24 -25z m-175 -25 c3 -5 1 -10 -4 -10
-6 0 -11 5 -11 10 0 6 2 10 4 10 3 0 8 -4 11 -10z m223 -26 c11 7 26 -24 16
-33 -4 -3 -9 0 -11 7 -3 6 -11 12 -19 12 -8 0 -14 8 -14 18 0 13 2 14 9 3 5
-7 13 -11 19 -7z m-648 -24 c0 -5 -4 -10 -10 -10 -5 0 -10 5 -10 10 0 6 5 10
10 10 6 0 10 -4 10 -10z m-2200 -66 c0 -14 -12 -31 -29 -43 -29 -21 -52 -27
-49 -13 0 4 -2 15 -7 26 -8 18 11 40 27 30 4 -3 18 2 30 10 18 13 19 16 5 16
-9 0 -17 7 -17 17 0 14 2 14 20 -2 11 -10 20 -28 20 -41z m1706 11 c7 -27 -2
-62 -13 -52 -3 4 -12 2 -20 -4 -9 -9 -21 -8 -43 1 -24 10 -32 10 -44 -3 -8 -8
-13 -23 -10 -34 8 -29 -26 -54 -64 -47 -40 8 -42 24 -3 24 34 0 48 15 53 55 2
24 8 30 28 30 14 0 31 4 38 8 8 5 19 4 28 -4 21 -18 29 -3 12 23 -8 13 -13 29
-11 35 7 20 42 -3 49 -32z m1098 -5 c-16 -16 -49 13 -40 35 6 18 8 17 29 -3
14 -15 18 -25 11 -32z m-994 15 c0 -12 -50 -55 -64 -55 -13 0 -5 41 9 46 8 4
15 12 15 19 0 8 8 11 20 8 11 -3 20 -11 20 -18z m1040 5 c0 -5 -2 -10 -4 -10
-3 0 -8 5 -11 10 -3 6 -1 10 4 10 6 0 11 -4 11 -10z m-1500 -15 c0 -10 -24
-55 -30 -55 -9 0 -30 23 -30 32 0 5 10 13 23 18 25 10 37 12 37 5z m890 -25
c0 -5 -9 -10 -20 -10 -11 0 -20 5 -20 10 0 6 9 10 20 10 11 0 20 -4 20 -10z
m90 -5 c7 -9 10 -18 7 -22 -8 -7 -37 15 -37 28 0 14 16 11 30 -6z m548 -19 c6
-29 -15 -43 -35 -24 -14 14 -14 20 -3 33 16 19 34 15 38 -9z m-1348 -1 c-7 -9
-15 -13 -17 -11 -7 7 7 26 19 26 6 0 6 -6 -2 -15z m-1495 -15 c-4 -7 3 -7 20
0 15 6 28 10 31 10 11 0 -20 -47 -45 -67 -30 -26 -43 -29 -35 -9 3 8 1 17 -5
21 -15 9 -14 21 5 39 17 18 39 22 29 6z m2254 -29 c-19 -30 1 -49 35 -33 30
13 38 6 29 -26 -5 -22 -3 -24 18 -19 55 14 62 -28 8 -52 -35 -15 -43 -10 -45
30 -2 36 -8 43 -29 35 -11 -4 -14 -13 -9 -31 3 -14 2 -25 -3 -25 -12 0 -83 59
-83 69 0 18 74 91 82 83 6 -6 5 -18 -3 -31z m-389 13 c0 -9 -5 -14 -12 -12
-18 6 -21 28 -4 28 9 0 16 -7 16 -16z m-2010 -4 c0 -5 -4 -10 -10 -10 -5 0
-10 5 -10 10 0 6 5 10 10 10 6 0 10 -4 10 -10z m2782 -34 c-2 -4 1 -12 8 -16
14 -9 7 -40 -10 -40 -5 0 -10 9 -10 20 0 11 -4 20 -10 20 -5 0 -14 10 -21 21
-8 16 -8 23 1 29 14 9 50 -20 42 -34z m-2462 24 c0 -5 -4 -10 -10 -10 -5 0
-10 5 -10 10 0 6 5 10 10 10 6 0 10 -4 10 -10z m-220 -20 c0 -5 -4 -10 -9 -10
-6 0 -13 5 -16 10 -3 6 1 10 9 10 9 0 16 -4 16 -10z m1314 -41 c-3 -5 -13 -9
-23 -9 -9 0 -22 -5 -28 -11 -21 -21 -23 9 -2 35 20 26 22 26 40 10 10 -9 16
-21 13 -25z m1301 31 c-4 -6 -14 -9 -23 -8 -11 2 -16 -3 -14 -14 3 -22 -11
-23 -27 -4 -10 11 -8 17 6 25 23 14 66 14 58 1z m-655 -13 c0 -7 -10 -24 -22
-37 -27 -29 -37 -10 -14 25 18 27 36 33 36 12z m-156 -23 c16 -16 22 -44 9
-44 -10 0 -53 42 -53 52 0 14 28 9 44 -8z m990 -36 c22 -30 20 -38 -7 -38 -28
0 -47 17 -47 42 0 26 35 23 54 -4z m-2879 -18 c3 -5 1 -10 -4 -10 -6 0 -11 5
-11 10 0 6 2 10 4 10 3 0 8 -4 11 -10z m1308 -7 c8 -7 -21 -43 -34 -43 -5 0
-8 11 -7 25 2 24 25 34 41 18z m1247 -11 c0 -13 -31 -52 -41 -52 -5 0 -3 14 6
30 14 28 35 41 35 22z m45 -13 c8 -12 -23 -49 -42 -49 -17 0 -17 6 5 35 19 27
28 30 37 14z m-605 -44 c0 -8 -7 -15 -15 -15 -9 0 -12 6 -9 15 4 8 10 15 15
15 5 0 9 -7 9 -15z"/>
<path d="M1614 2445 c-7 -18 3 -35 21 -35 15 0 28 27 19 41 -8 14 -34 11 -40
-6z"/>
<path d="M1000 2013 c0 -11 10 -25 25 -31 14 -6 25 -8 25 -4 0 5 -11 19 -25
32 -24 22 -25 23 -25 3z"/>
<path d="M895 1814 c-12 -13 -13 -20 -5 -28 8 -8 15 -6 26 8 26 36 10 51 -21
20z"/>
<path d="M780 666 c0 -2 7 -9 15 -16 9 -7 15 -8 15 -2 0 5 -7 12 -15 16 -8 3
-15 4 -15 2z"/>
<path d="M839 616 c14 -14 26 -24 29 -22 7 8 -8 25 -31 37 -21 11 -21 10 2
-15z"/>
<path d="M912 546 c7 -8 15 -12 17 -11 5 6 -10 25 -20 25 -5 0 -4 -6 3 -14z"/>
<path d="M2170 2224 c0 -5 -27 -40 -60 -77 -33 -38 -60 -72 -60 -77 0 -26 33
-3 90 61 58 65 62 72 46 87 -9 9 -16 12 -16 6z"/>
<path d="M2230 726 c-13 -17 -6 -36 15 -36 19 0 26 27 11 39 -10 8 -17 7 -26
-3z"/>
<path d="M3083 1704 c-7 -11 -10 -30 -7 -41 3 -12 1 -31 -6 -43 -15 -27 -5
-39 16 -18 11 10 14 30 12 69 -3 48 -4 52 -15 33z"/>
<path d="M0 883 l0 -57 34 33 c21 20 36 29 40 22 4 -6 13 -11 19 -11 16 1 -63
70 -80 70 -9 0 -13 -16 -13 -57z"/>
<path d="M0 500 c0 -19 3 -21 12 -12 9 9 9 15 0 24 -9 9 -12 7 -12 -12z"/>
</g>
</svg>
